<?xml version="1.0" encoding="utf-8"?>
<!-- Generator: Adobe Illustrator 17.0.0, SVG Export Plug-In . SVG Version: 6.00 Build 0)  -->
<!DOCTYPE svg PUBLIC "-//W3C//DTD SVG 1.1//EN" "http://www.w3.org/Graphics/SVG/1.1/DTD/svg11.dtd">
<svg version="1.1" id="Слой_1" xmlns="http://www.w3.org/2000/svg" xmlns:xlink="http://www.w3.org/1999/xlink" x="0px" y="0px"
	 width="478px" height="246.215px" viewBox="0 0 478 246.215" enable-background="new 0 0 478 246.215" xml:space="preserve">
<g>
	<g>
		<g>
			<g>
				<g>
					<path fill="#3D3D3D" d="M127.687,183.921c-29.66,0-53.791-24.132-53.791-53.794c0-6.509,1.15-12.871,3.418-18.91
						c0.7-1.862,2.777-2.805,4.639-2.106c1.863,0.7,2.805,2.777,2.106,4.639c-1.963,5.226-2.958,10.736-2.958,16.376
						c0,25.689,20.898,46.589,46.586,46.589s46.586-20.9,46.586-46.589c0-5.64-0.995-11.15-2.958-16.376
						c-0.7-1.863,0.243-3.94,2.106-4.639c1.863-0.7,3.94,0.244,4.639,2.106c2.268,6.039,3.418,12.401,3.418,18.91
						C181.477,159.789,157.347,183.921,127.687,183.921z"/>
				</g>
				<g>
					<path fill="#3D3D3D" d="M154.344,111.496c-1.028,0-2.049-0.439-2.76-1.29c-5.937-7.113-14.647-11.192-23.898-11.192
						s-17.961,4.079-23.898,11.192c-1.271,1.523-3.536,1.728-5.059,0.456c-1.523-1.271-1.727-3.536-0.456-5.059
						c7.306-8.752,18.026-13.772,29.413-13.772s22.107,5.02,29.413,13.772c1.271,1.523,1.067,3.788-0.456,5.059
						C155.972,111.222,155.155,111.496,154.344,111.496z"/>
				</g>
				<g>
					<path fill="#3D3D3D" d="M142.666,121.258c-1.036,0-2.065-0.442-2.78-1.3c-3.03-3.631-7.477-5.713-12.199-5.713
						s-9.168,2.082-12.199,5.713c-1.281,1.534-3.563,1.74-5.098,0.459c-1.535-1.281-1.74-3.563-0.46-5.098
						c4.409-5.283,10.881-8.313,17.756-8.313c6.875,0,13.346,3.03,17.756,8.313c1.281,1.535,1.075,3.817-0.46,5.098
						C144.306,120.982,143.484,121.258,142.666,121.258z"/>
				</g>
				<g>
					<circle fill="#3D3D3D" cx="127.687" cy="130.128" r="7.582"/>
				</g>
				<path fill="#3D3D3D" d="M207.829,126.371h-7.072c-0.848-16.885-7.406-32.716-18.745-45.255l5-5c1.467-1.467,1.467-3.846,0-5.313
					c-1.467-1.467-3.846-1.467-5.313,0l-5,5c-12.539-11.34-28.371-17.897-45.256-18.745v-7.072c0-2.075-1.682-3.757-3.757-3.757
					c-2.075,0-3.757,1.682-3.757,3.757v7.072c-16.885,0.848-32.716,7.406-45.255,18.745l-5-5c-1.467-1.467-3.846-1.467-5.313,0
					c-1.467,1.467-1.467,3.846,0,5.313l5,5c-11.34,12.539-17.897,28.37-18.746,45.255h-7.072c-2.075,0-3.757,1.682-3.757,3.757
					s1.682,3.757,3.757,3.757h7.072c0.848,16.885,7.406,32.716,18.746,45.256l-5,5.001c-1.467,1.467-1.467,3.846,0,5.313
					c0.734,0.733,1.695,1.1,2.656,1.1s1.923-0.367,2.656-1.1l5-5c12.539,11.34,28.37,17.897,45.255,18.745v7.072
					c0,2.075,1.682,3.757,3.757,3.757c2.075,0,3.757-1.682,3.757-3.757v-7.072c16.885-0.848,32.716-7.406,45.256-18.745l5,5
					c0.734,0.734,1.695,1.1,2.656,1.1c0.961,0,1.923-0.367,2.656-1.1c1.467-1.467,1.467-3.846,0-5.313l-5-5
					c11.34-12.539,17.897-28.37,18.745-45.256h7.072c2.075,0,3.757-1.682,3.757-3.757S209.903,126.371,207.829,126.371z
					 M127.687,193.494c-34.94,0-63.366-28.426-63.366-63.366c0-34.94,28.426-63.366,63.366-63.366s63.366,28.426,63.366,63.366
					C191.053,165.068,162.627,193.494,127.687,193.494z"/>
				<g>
					<path fill="#3D3D3D" d="M166.241,101.589c-1.031,0-2.055-0.44-2.767-1.294c-8.891-10.648-21.935-16.754-35.787-16.754
						c-13.85,0-26.893,6.107-35.784,16.754c-1.275,1.527-3.547,1.732-5.074,0.456c-1.527-1.275-1.731-3.547-0.456-5.074
						c10.264-12.292,25.322-19.341,41.314-19.341c15.994,0,31.054,7.05,41.317,19.341c1.275,1.527,1.071,3.799-0.456,5.074
						C167.874,101.314,167.055,101.589,166.241,101.589z"/>
				</g>
			</g>
			<path fill="#3D3D3D" d="M240.432,124.663h13.134c2.712,0,5.152-0.465,7.322-1.395c2.168-0.93,3.874-2.285,5.114-4.068
				c1.238-1.782,1.86-3.952,1.86-6.509c0-3.874-1.357-6.876-4.068-9.008c-2.713-2.13-6.122-3.196-10.228-3.196h-9.072
				c-1.088,0-1.97,0.882-1.97,1.97v59.987c0,1.088,0.882,1.97,1.97,1.97h10.234c3.487,0,6.567-0.619,9.24-1.86
				c2.673-1.238,4.765-3.022,6.276-5.347c1.511-2.325,2.267-5.152,2.267-8.485c0-2.479-0.427-4.687-1.278-6.625
				c-0.854-1.936-2.074-3.563-3.661-4.882c-1.589-1.317-3.469-2.305-5.637-2.964c-2.17-0.657-4.573-0.988-7.206-0.988h-14.296
				v-5.463h14.296c3.952,0,7.593,0.427,10.926,1.279c3.331,0.853,6.256,2.15,8.775,3.894c2.517,1.744,4.475,3.972,5.87,6.683
				c1.395,2.713,2.092,5.928,2.092,9.647c0,5.347-1.22,9.783-3.661,13.308c-2.441,3.527-5.735,6.16-9.88,7.904
				c-4.146,1.743-8.854,2.615-14.122,2.615h-17.382c-2.597,0-4.702-2.105-4.702-4.702V96.888c0-2.827,2.292-5.118,5.118-5.118
				h15.803c3.641,0,6.934,0.407,9.88,1.22c2.944,0.814,5.481,2.054,7.613,3.72c2.13,1.667,3.778,3.777,4.94,6.335
				c1.162,2.557,1.743,5.579,1.743,9.066c0,3.797-1.008,7.052-3.022,9.763c-2.016,2.713-4.824,4.766-8.427,6.16
				c-3.603,1.395-7.846,2.092-12.727,2.092h-13.134V124.663z"/>
			<path fill="#3D3D3D" d="M344.355,165.329l-18.606-25.676c2.053-0.487,4.003-1.157,5.837-2.03c4.144-1.976,7.439-4.804,9.88-8.485
				c2.441-3.679,3.661-8,3.661-12.96c0-5.036-1.22-9.375-3.661-13.018c-2.441-3.641-5.735-6.451-9.88-8.427
				c-4.146-1.976-8.854-2.964-14.122-2.964h-17.027v0.006c-0.039-0.001-0.078-0.006-0.117-0.006c-2.728,0-4.94,2.212-4.94,4.94
				v71.318c0,2.72,2.128,5.053,4.847,5.103c2.771,0.051,5.032-2.18,5.032-4.939v-25.58c0-1.118,0.906-2.024,2.024-2.024h6.823
				c0.663,0,1.283,0.324,1.662,0.868l20.568,29.567c0.919,1.321,2.427,2.109,4.036,2.109l0,0
				C344.388,173.131,346.71,168.58,344.355,165.329z M305.26,102.512c0-1.118,0.906-2.024,2.024-2.024h10.18
				c3.487,0,6.567,0.621,9.24,1.86c2.673,1.24,4.765,3.022,6.276,5.347c1.511,2.325,2.267,5.154,2.267,8.485
				c0,3.333-0.756,6.16-2.267,8.485c-1.511,2.325-3.603,4.108-6.276,5.347c-2.673,1.24-5.753,1.86-9.24,1.86h-10.18
				c-1.118,0-2.024-0.906-2.024-2.024V102.512z"/>
			<path fill="#3D3D3D" d="M369.293,96.71v71.482c0,2.728-2.212,4.94-4.94,4.94l0,0c-2.728,0-4.94-2.212-4.94-4.94V96.71
				c0-2.728,2.212-4.94,4.94-4.94l0,0C367.081,91.77,369.293,93.982,369.293,96.71z"/>
			<path fill="#3D3D3D" d="M385.573,91.77h40.704c5.12,0,8.293,5.573,5.679,9.976l-35.722,60.184
				c-0.499,0.84,0.107,1.903,1.084,1.903h33.586c2.568,0,4.649,2.081,4.649,4.649v0c0,2.568-2.082,4.649-4.649,4.649H390.2
				c-5.12,0-8.293-5.573-5.679-9.976l35.722-60.184c0.499-0.84-0.107-1.903-1.084-1.903h-33.586c-2.568,0-4.649-2.082-4.649-4.649v0
				C380.924,93.852,383.005,91.77,385.573,91.77z"/>
		</g>
	</g>
</g>
</svg>
